<svg xmlns="http://www.w3.org/2000/svg" viewBox="0 0 1200 630" width="1200" height="630">
  <!-- Background -->
  <rect width="1200" height="630" fill="#0f172a"/>

  <!-- Top accent bar -->
  <rect x="0" y="0" width="1200" height="4" fill="#2563eb"/>

  <!-- Ghost node mark — decorative background, right side -->
  <g transform="translate(680, 35) scale(14)" opacity="0.05">
    <circle cx="20" cy="20" r="3.5" fill="#60a5fa"/>
    <circle cx="8" cy="12" r="2.5" fill="#60a5fa"/>
    <circle cx="32" cy="12" r="2.5" fill="#60a5fa"/>
    <circle cx="8" cy="28" r="2.5" fill="#60a5fa"/>
    <circle cx="32" cy="28" r="2.5" fill="#60a5fa"/>
    <line x1="10" y1="13" x2="17.5" y2="18" stroke="#60a5fa" stroke-width="1.5"/>
    <line x1="30" y1="13" x2="22.5" y2="18" stroke="#60a5fa" stroke-width="1.5"/>
    <line x1="10" y1="27" x2="17.5" y2="22" stroke="#60a5fa" stroke-width="1.5"/>
    <line x1="30" y1="27" x2="22.5" y2="22" stroke="#60a5fa" stroke-width="1.5"/>
  </g>

  <!-- Visible logo mark — left side, vertically centered -->
  <g transform="translate(80, 235) scale(4)">
    <circle cx="20" cy="20" r="3.5" fill="#60a5fa"/>
    <circle cx="8" cy="12" r="2.5" fill="#60a5fa" opacity="0.7"/>
    <circle cx="32" cy="12" r="2.5" fill="#60a5fa" opacity="0.7"/>
    <circle cx="8" cy="28" r="2.5" fill="#60a5fa" opacity="0.4"/>
    <circle cx="32" cy="28" r="2.5" fill="#60a5fa" opacity="0.4"/>
    <line x1="10" y1="13" x2="17.5" y2="18" stroke="#60a5fa" stroke-width="1.2" opacity="0.6"/>
    <line x1="30" y1="13" x2="22.5" y2="18" stroke="#60a5fa" stroke-width="1.2" opacity="0.6"/>
    <line x1="10" y1="27" x2="17.5" y2="22" stroke="#60a5fa" stroke-width="1.2" opacity="0.3"/>
    <line x1="30" y1="27" x2="22.5" y2="22" stroke="#60a5fa" stroke-width="1.2" opacity="0.3"/>
  </g>

  <!-- Wordmark -->
  <text x="280" y="308" font-family="'DM Sans', system-ui, -apple-system, sans-serif" font-weight="700" font-size="68" fill="#f1f5f9" letter-spacing="-1">Buechler Pacific</text>
  <text x="284" y="362" font-family="'DM Sans', system-ui, -apple-system, sans-serif" font-weight="400" font-size="26" fill="#64748b">AI Systems for Finance</text>

  <!-- URL -->
  <text x="80" y="568" font-family="'DM Sans', system-ui, -apple-system, sans-serif" font-weight="600" font-size="16" fill="#3b82f6" letter-spacing="0.3">buechlerpacific.com</text>
</svg>
